<svg width="24" height="24" viewBox="0 0 24 24" fill="none" xmlns="http://www.w3.org/2000/svg">
<path d="M10.486 16.7299C10.3547 16.7302 10.2247 16.7045 10.1034 16.6544C9.98206 16.6043 9.87182 16.5307 9.779 16.4379L5.537 12.1949C5.44143 12.1027 5.36517 11.9924 5.31268 11.8705C5.26018 11.7485 5.23251 11.6173 5.23126 11.4845C5.23001 11.3517 5.25522 11.22 5.30542 11.0971C5.35561 10.9742 5.42978 10.8625 5.52361 10.7685C5.61744 10.6746 5.72903 10.6002 5.85189 10.5499C5.97475 10.4995 6.10641 10.4741 6.23919 10.4752C6.37197 10.4762 6.50321 10.5037 6.62525 10.556C6.74729 10.6083 6.85769 10.6845 6.95 10.7799L10.485 14.3149L16.85 7.95189C17.0375 7.76425 17.2919 7.65879 17.5571 7.65869C17.8224 7.6586 18.0769 7.76389 18.2645 7.95139C18.4521 8.1389 18.5576 8.39327 18.5577 8.65854C18.5578 8.92381 18.4525 9.17825 18.265 9.36589L11.193 16.4379C11.1002 16.5307 10.9899 16.6043 10.8686 16.6544C10.7473 16.7045 10.6173 16.7302 10.486 16.7299Z" fill="#25A249"/>
</svg>
