<svg width="24" height="24" viewBox="0 0 24 24" fill="none" xmlns="http://www.w3.org/2000/svg">
<path d="M13.314 11.9001L16.849 8.36406C16.9445 8.27182 17.0207 8.16147 17.0731 8.03947C17.1255 7.91746 17.1531 7.78624 17.1543 7.65346C17.1554 7.52069 17.1301 7.38901 17.0798 7.26611C17.0295 7.14321 16.9553 7.03156 16.8614 6.93767C16.7675 6.84378 16.6559 6.76952 16.533 6.71924C16.4101 6.66896 16.2784 6.64366 16.1456 6.64481C16.0128 6.64597 15.8816 6.67355 15.7596 6.72596C15.6376 6.77837 15.5273 6.85455 15.435 6.95006L11.899 10.4851L8.364 6.95006C8.27176 6.85455 8.16141 6.77837 8.03941 6.72596C7.9174 6.67355 7.78618 6.64597 7.6534 6.64481C7.52062 6.64366 7.38894 6.66896 7.26605 6.71924C7.14315 6.76952 7.0315 6.84378 6.93761 6.93767C6.84371 7.03156 6.76946 7.14321 6.71918 7.26611C6.6689 7.38901 6.6436 7.52069 6.64475 7.65346C6.64591 7.78624 6.67349 7.91746 6.7259 8.03947C6.77831 8.16147 6.85449 8.27182 6.95 8.36406L10.485 11.8991L6.95 15.4351C6.85449 15.5273 6.77831 15.6377 6.7259 15.7597C6.67349 15.8817 6.64591 16.0129 6.64475 16.1457C6.6436 16.2784 6.6689 16.4101 6.71918 16.533C6.76946 16.6559 6.84371 16.7676 6.93761 16.8615C7.0315 16.9554 7.14315 17.0296 7.26605 17.0799C7.38894 17.1302 7.52062 17.1555 7.6534 17.1543C7.78618 17.1532 7.9174 17.1256 8.03941 17.0732C8.16141 17.0208 8.27176 16.9446 8.364 16.8491L11.899 13.3141L15.435 16.8491C15.5273 16.9446 15.6376 17.0208 15.7596 17.0732C15.8816 17.1256 16.0128 17.1532 16.1456 17.1543C16.2784 17.1555 16.4101 17.1302 16.533 17.0799C16.6559 17.0296 16.7675 16.9554 16.8614 16.8615C16.9553 16.7676 17.0295 16.6559 17.0798 16.533C17.1301 16.4101 17.1554 16.2784 17.1543 16.1457C17.1531 16.0129 17.1255 15.8817 17.0731 15.7597C17.0207 15.6377 16.9445 15.5273 16.849 15.4351L13.314 11.8991V11.9001Z" fill="#21272A"/>
</svg>
