<svg width="24" height="24" viewBox="0 0 24 24" fill="none" xmlns="http://www.w3.org/2000/svg">
<path d="M15.126 13.846L14.942 12.81L19.432 8.31901L16.581 5.46701L12.089 9.95701L11.054 9.77301C10.1353 9.6083 9.18897 9.70142 8.32 10.042L14.858 16.579C15.1981 15.7103 15.2908 14.7643 15.126 13.846V13.846ZM10.876 15.45L5.17 21.154C4.9809 21.3431 4.72443 21.4493 4.457 21.4493C4.18958 21.4493 3.9331 21.3431 3.744 21.154C3.5549 20.9649 3.44867 20.7084 3.44867 20.441C3.44867 20.1736 3.5549 19.9171 3.744 19.728L9.449 14.024L5.17 9.74501C5.97422 8.93955 6.96148 8.34075 8.04742 7.99979C9.13337 7.65882 10.2857 7.58581 11.406 7.78701L15.153 4.04001C15.3403 3.85263 15.5627 3.70399 15.8075 3.60258C16.0522 3.50117 16.3146 3.44897 16.5795 3.44897C16.8444 3.44897 17.1068 3.50117 17.3516 3.60258C17.5963 3.70399 17.8187 3.85263 18.006 4.04001L20.858 6.89301C21.2361 7.27125 21.4485 7.78418 21.4485 8.31901C21.4485 8.85383 21.2361 9.36676 20.858 9.74501L17.111 13.492C17.3122 14.6123 17.2392 15.7646 16.8982 16.8506C16.5573 17.9365 15.9585 18.9238 15.153 19.728L10.876 15.45Z" fill="#697077"/>
</svg>
