<svg width="15" height="15" viewBox="0 0 15 15" fill="none" xmlns="http://www.w3.org/2000/svg">
<path fill-rule="evenodd" clip-rule="evenodd" d="M7.5 7.03125C7.24112 7.03125 7.03125 7.24112 7.03125 7.5C7.03125 7.75888 7.24112 7.96875 7.5 7.96875C7.75888 7.96875 7.96875 7.75888 7.96875 7.5C7.96875 7.24112 7.75888 7.03125 7.5 7.03125ZM6.09375 7.5C6.09375 6.72335 6.72335 6.09375 7.5 6.09375C8.27665 6.09375 8.90625 6.72335 8.90625 7.5C8.90625 8.27665 8.27665 8.90625 7.5 8.90625C6.72335 8.90625 6.09375 8.27665 6.09375 7.5Z" fill="#21272A"/>
<path fill-rule="evenodd" clip-rule="evenodd" d="M7.5 11.7188C7.24112 11.7188 7.03125 11.9286 7.03125 12.1875C7.03125 12.4464 7.24112 12.6562 7.5 12.6562C7.75888 12.6562 7.96875 12.4464 7.96875 12.1875C7.96875 11.9286 7.75888 11.7188 7.5 11.7188ZM6.09375 12.1875C6.09375 11.4108 6.72335 10.7812 7.5 10.7812C8.27665 10.7812 8.90625 11.4108 8.90625 12.1875C8.90625 12.9642 8.27665 13.5938 7.5 13.5938C6.72335 13.5938 6.09375 12.9642 6.09375 12.1875Z" fill="#21272A"/>
<path fill-rule="evenodd" clip-rule="evenodd" d="M7.5 2.34375C7.24112 2.34375 7.03125 2.55362 7.03125 2.8125C7.03125 3.07138 7.24112 3.28125 7.5 3.28125C7.75888 3.28125 7.96875 3.07138 7.96875 2.8125C7.96875 2.55362 7.75888 2.34375 7.5 2.34375ZM6.09375 2.8125C6.09375 2.03585 6.72335 1.40625 7.5 1.40625C8.27665 1.40625 8.90625 2.03585 8.90625 2.8125C8.90625 3.58915 8.27665 4.21875 7.5 4.21875C6.72335 4.21875 6.09375 3.58915 6.09375 2.8125Z" fill="#21272A"/>
</svg>
